<?xml version="1.0" encoding="utf-8"?>
<!-- Generator: Adobe Illustrator 18.0.0, SVG Export Plug-In . SVG Version: 6.00 Build 0)  -->
<!DOCTYPE svg PUBLIC "-//W3C//DTD SVG 1.1//EN" "http://www.w3.org/Graphics/SVG/1.1/DTD/svg11.dtd">
<svg version="1.1" id="Слой_1" xmlns="http://www.w3.org/2000/svg" xmlns:xlink="http://www.w3.org/1999/xlink" >

<symbol id="n/a" x="0px" y="0px"
	 viewBox="106.2 0 584.1 1024" enable-background="new 106.2 0 584.1 1024" xml:space="preserve">
<path  fill="inherit" stroke="#000000" stroke-width="2" stroke-linecap="round" stroke-linejoin="round" stroke-miterlimit="10"  d="
	M587.7,536.4V547c0,0-5.1,13.2,0,27.4c0,0-12.7,8.6,0,12.7c0,0,11.6,0.5,16.2-2.5l-10.9,7.6c0,0-23,2.5-19,9.1c0,0,6.6,8.1,24.3,8.6
	c0,0,13.7-9.1,16.2-12.2c0,0,8.1-7.1,8.1-10.6c0,0,12.7,14.7,24.3,13.7c0,0,33.9,0.9,36.5-29.7c0,0,9.6-9.3,6.1-21.5l-16.2-72.9
	c0,0-5.1-9.1-8.1-4.6l-0.5-3.5c0,0-2.5-15.2,0.5-24.8c0,0,9.1-15.7,3-22.3c0,0,21.8-57.7-16.7-60.3c0,0-5.1-41-26.3-67.4
	c0,0,8.1-44.1-2-60.3c0,0-34.4-46.1-100.8-19.8c0,0-16.2,3-12.2,19.2c0,0-26.3,18.7-33.4,29.4v2.5c0,0-17.2-2.5-27.9,1.5l-2-12.7
	c0,0,31.9-13.7,43.1-30.9c0,0,13.2-9.1,23.3-11.7c0,0,17.2-6.1,13.7-48.6c0,0-3-64.3-37.5-70.4c0,0-9.6,1.5-14.7,0
	c0,0-22.8-19.8-48.6-22.8H421c0,0-37.5-12.2-63.3,4.6l-3,2.5c0,0-44.1,18.7-44.6,32.9l-23.3,11.1c0,0-22.3,6.6-14.7,59.8
	c0,0,7.6,63.3,32.9,66.4l20.8,0.5c0,0,50.7,19.2,57.5,16.7V274c0,0-5.9,4.1-4.8,6.6c0,0-24.8,3-29.9,5.1c0,0-18.7-18.7-65.8-18.2
	c0,0-14.2,2-10.1,24.8l-9.1-2.5c0,0-7.6-22.3-56.2-32.9v-7.1c0,0,11.1-8.6,0-23.3c0,0,0-14.2,0-19.2c0,0,37.5-52.2,25.3-78.5
	l-5.1-4.1l2-2c0,0,13.2-0.5,15.2-5.6l4.1-0.5c0,0,9.1-20.8,14.7-25.3c0,0-0.5-13.7-19.2-3.5c0,0-11.1,8.1-11.7,14.2
	c0,0-11.1-1-15.2,8.1l-4.1-11.1c0,0,0.5-13.2-6.1-18.7V69.9c0,0,9.1-9.6,4.1-17.2l0.5-3c0,0,15.2-6.1,13.7-16.2
	c0,0,17.7-13.2,14.2-25.3c0,0-3.5-8.1-15.2,2l-9.1,7.1c0,0-14.2,4.6-12.7,14.7c0,0-13.7,1-20.3,12.2c0,0-5.1-11.7-22.8-9.6
	c0,0-13.7,3.5-17.7,6.6c0,0-15.7,2-26.3,33.9c0,0-15.7,5.6-6.6,36c0,0,10.6,41.5,11.1,67.4c0,0,0,5.1,7.1,6.6l1,27.9
	c0,0-15.2,11.1-9.6,23.8c0,0-18.7,48.1-3,66.9c0,0,13.2,16.2,24.8,8.1c0,0-2.5,23.8,52.7,42c0,0,3,44.1,42.5,49.1
	c0,0,47.6,9.6,69.4-3.5c0,0,10.6,30.9,26.8,36.5l8.1,9.6c0,0-0.5,29.9,11.7,51.2c0,0-14.2,6.6-1.5,30.4c0,0-26.3-1.5-25.8,12.7
	l7.6,27.9c0,0-12.2,6.1-14.7,11.1c0,0-15.7-4.6-28.9-1.5c0,0-11.1,4.1-8.6,36c0,0-3.5,97.2-8.1,115l-8.1,37.5c0,0-4.1,10.1,8.1,19.2
	c0,0-20.7,12.7-15.2,40c0,0-0.5,43.1,12.1,44.6c0,0-15.7,13.2-10.7,36.7c0,0,17.7,9.8,18.2,31.1c0,0-20.3,52.2,14.2,70.4
	c0,0,18.2,23.3,74.5,14.7c0,0,52.2-6.6,49.6-31.4l-0.5-10.6c0,0,0-5.1-1.5-5.1c0,0-3-39.5-17.7-52.7c0,0-7.4-6.1-9.3-24.3
	c0,0,13.3-16.7,8.8-46.6c0,0-1.6-36.5,4-55.2c0,0,4.1-6.6,3.1-11.1c0,0,8.6-7.6,8.6-18.2c0,0,8.6-51.2-0.5-92.7c0,0-4.1-42-4.1-65.8
	c0,0-0.5-10.6-2.5-14.7c0,0,2-14.7-4.6-20.3l7.6-1c0,0,9.1,25.8,22.3,36c0,0,17.7,91.2,21.8,95.7c0,0-27.4,25.3,11.1,64.3
	c0,0-42,45.1-7.6,94.2c0,0-12.2,21.3-4.6,40.5c0,0,29.9,19.2,56.2,45.1c0,0,35.5,44.1,64.3,53.2c0,0,65.3,11.7,86.1-40.5
	c0,0,6.1-22.3-2-28.9c0,0-8.6-41-50.1-51.7l-19.8-1.5c0,0,0-12.2-3-16.2c0,0,8.6-24.3-0.5-54.7c0,0-5.6-22.8-0.5-35.5
	c0,0,16.2-30.9,12.7-36.5c0,0,10.6-11.1,9.6-21.3c0,0-20.3-52.7-24.3-65.3c0,0,2-20.8-11.6-46.1c0,0-3.5-12.2-1.5-24.8
	c0,0,4.1-31.9-14.2-43.1c0,0-14.7-11.1-24.3-4.6c0,0,0-9.2,0-13.5c0,0-2-12.4-25.3-15.4c0,0,0.5-17.2-11.1-19.2c0,0,3-9.6,2.5-14.2
	c0,0,12.2-11.7,15.7-22.3c0,0,19.2-12.7,27.4-56.2c0,0,13.2-30.9,11.1-52.7c0,0,5.6-1,7.6-5.6c0,0,7.6,37.5,42,64.8
	c0,0-14.2,14.7-0.5,34.4c0,0-4.6,8.1,1.5,18.2c0,0,1.5,10.1-1,15.7C595.8,464.9,566.9,514.1,587.7,536.4z"/>
</symbol>

<symbol id="male" x="0px" y="0px"
	 viewBox="248.2 0 383.6 1024" enable-background="new 248.2 0 383.6 1024" xml:space="preserve">
<path  fill="inherit" stroke="#000000" stroke-width="2" stroke-linecap="round" stroke-linejoin="round" stroke-miterlimit="10"  d="
	M630.9,357.1c0,0-6.6-42.5-11.3-59.5c0,0,4.3-4.7,5.7-9c0,0-15.1-48.7-18.4-54.8c0,0-15.1-63.8-43.3-69l-16.2-6.6
	c0,0-15-11.4-29.2-8.1l-8.3-4.3c0,0-8.6-20.8-28.7-23.5v-12.7c0,0,2.6-8.1,3.5-12.4c0,0,9.1,0.9,11-15.6c0,0,2.4-25.5-5.1-23.1
	c0,0,2.4-35.9-19.8-48.2c0,0-27.6-20.1-55.6-1.2c-7.1,4.8-28,20.6-20.9,52c0,0-14.6-5-6.1,23.4c0,0,4.3,17.5,10.4,14.6
	c0,0,5.9,15.7,10.6,18.1l0.9,5.1c0,0-21.4,16-20,25.9l-7.2,5.8c0,0-35.4,6.1-38.7,17.5c0,0-34,9.4-38.3,47.7c0,0-20.3,84.1-9.9,84.6
	l-8.5,42c0,0-18,24.1-22.7,116.2c0,0-1.4,43.5-3.8,47.2c0,0-12.8,23.1-12.8,29.3c0,0,0.9,7.6,6.1,9.9c0,0-1.9,11.3,4.7,13.2
	c0,0-0.9,9,4.3,11.3c0,0,13.2,11.8,18,14.2c0,0,6.6-4.7-2.4-11.3l-1.9-3.3c0,0,7.6-2.8,9.4-4.3c0,0-0.9,9.9,4.7,11.8
	c0,0,3.3-2.4,4.7-14.2c0,0,8-36.4-2.4-52.9c0,0-0.5-27.4,7.1-47.2c0,0,32.6-86,32.1-113.9c0,0,14.2-33.5,14.6-39.2l6.6,0.9
	c0,0,3.8,92.1-2.8,116.2c0,0-11.8,48.7-7.6,52c0,0-3.8,44.9,3.8,43c0,0,2.4,57.2,8.5,77.5c0,0,12.6,128,16.2,133.7
	c0,0-4.1,13.7,0,17.5c0,0-4.1,12.8,0,17.5c0,0,3.1,63.8,11.6,114.8c0,0,0.5,67.1,15.6,71.3c0,0-0.9,21.3,1.9,24.6
	c0,0-29.6,11.3-15.6,24.1c0,0,13.2,1.8,30.1,2.8c13.9,0.8,24.3,6.4,43.6-0.9c0,0,2.4-12.8,0.5-17.5l0.9-10.4c0,0,6.1-12.8,7.1-32.6
	c0,0,6.1-123.8-15.1-155.9c0,0-1.4-20.3-3.8-25c0,0,2.4-28.3-2.4-36.9c0,0,12.3-86.9,8-105.8l7.6-15.6c0,0,18,24.6,25,92.1
	c0,0,2.9,38.3,12,39.2c0,0-4.4,14.2,0,17.5c0,0-28.6,127.6-16.7,147.9l2.8,2.8c0,0,4.2,28.8,13.9,34.5c0,0,13.7,0.4,2.2,43.3
	c0,0-6.1,31.6,21.7,34.7h16c0,0,32.2-6.4,17.6-58.4l-6.1-23.8c0,0,5.2-22.7,5.2-33.1c0,0,21.3-58.6,16.1-89.8c0,0,13.2-59.5,8-66.6
	c0,0,4.3-23.2,1.2-31.2c0,0-5-40.2-6.4-43.5c0,0,5.7-74.2,2.4-84.1c0,0,11.3-63.3,5.2-69c0,0,3.1-8.1,2.9-19.1
	c1.9,0.3,4.5,0.3,7.6-0.3c0,0,15.1,4.3,22.7-9.4l3.3-9c0,0-2.4-22.7-4.3-28.8C614.4,454,636.6,380.7,630.9,357.1z M566.7,315.5
	c0,0,2.4,5.2,6.1,2.8c0,0,10.4,24.1,9.9,34c0,0-5.2,30.7,0.5,64.7c0,0,0.7,22-3.9,36.3c-0.1-0.3-0.1-0.6-0.2-0.9c-1-4.4-2.1-8-3-9.9
	C576.1,442.6,561.9,356.6,566.7,315.5z"/>
</symbol>

<symbol id="female" x="0px" y="0px"
	 viewBox="252 0 355 1024" enable-background="new 252 0 355 1024" xml:space="preserve">
	<path fill="inherit" stroke="#000000" stroke-width="2" stroke-linecap="round" stroke-linejoin="round" stroke-miterlimit="10" d="
	M604.6,313.2c0,0-10.2-37.3-36.4-77.9c0,0-4.7-17.8-16-41.8c0,0-12.4-22.7-16-23.6c0,0,1.9-6.4-0.6-10.2c0,0,5.4-15-3.8-25.5
	c0,0,2.9-8.9,1-13.4c0,0,4.5-1,1.9-15c0,0,10.8-9.6-0.6-22.7c0,0,11.8-15.6-6.4-23.6c0,0-4.1-2.6-1.3-10.8c0,0,8-14.7-15.3-21.1
	c0,0-7-2.5-7-9.6c0,0-4.1-16-27.4-11.2c0,0-17.9-6.1-29.7,3.5c0,0-30.3-2.9-39.6,30.9c0,0-8.6,11.5-3.5,17.5c0,0-12.8,14.4-8.9,22.7
	c0,0-2.6,23.9,4.8,24.2c0,0-4.2,21.2,6.4,24.1c0,0,1.4,9.9,4.2,12.5c0,0-18.8,8.2-44.7,6.6c0,0-29-8.6-44,9.6
	c0,0-20.4,26.5-24.9,47.2c0,0-6.4,15.3-16.3,29c0,0-23.6,36.4-26.5,48.5c0,0-4.5,9.9,0,24.6c0,0,8.6,29.4,31.3,58.4
	c0,0,27.1,31.9,26.8,45.9c0,0-1.3,32.5,3.5,36.4l6.4,16.9l6.4,22.7c0,0,2.2,11.5,4.8,8.3c0,0,1.3,5.7,3.5,6.7c0,0,2.2,46.6,7,47.9
	c0,0-0.4,16.6,5.9,15.6c0,0,1.8,7.7,29.2,95.1c0,0,9.3,32.9,8.6,46.3c0,0,0.5,14.6-6.4,29.4c-19.5,42-15,108.6-15,108.6
	c5.2,50.5,1,61.7,1,61.7c-2,4-4.4,19.2-4.4,19.2c-5.6,3.2-5.2,20-5.2,20c0.8,10.8-1.5,29.3-1.5,29.3c-5.6,17.6-2.9,29.4-2.9,29.4
	v8.7c17.5,18.4,41.6,4.4,41.6,4.4l1.8-8.4c5.2-7.6,2.5-30.5,2.5-30.5c2-7.6,0-48.9,0-48.9c2.4-5.2,0-27.3,0-27.3
	c-0.4-29.7,23.3-78.2,23.3-78.2s5.6,60.9,1.6,77.4c0,0-6.8,21.6-6,27.7c0,0-8.8,30.5-8.8,42.9l-3.6,16c0,0-4.8,14.8-1.6,21.6
	l1.2,9.2c0,0,20.4,9.6,42.1-2.4l2.4-8.8c0,0,1.6-8,2-23.3l3.6-30.9c0,0,3.6-15.6,0-24.9c0,0-2-12.4-0.8-18.1c0,0,4.8-44.1,10.8-59.8
	c0,0,19.2-63,10.4-149.6c0,0,0.3-36.9,8.2-64.1c0,0,30.6-97.9,30.9-101.5c0,0,8-3.8,6.7-14.4c0,0,3.5-2.9,2.6-8
	c0,0,9.9-47.9,5.1-65.4l1.3-22.7c0,0-1.9-9.9-5.8-19.5c0,0,1.6-7.7,1-10.5l-1.3-22c0,0,1.3-8.6,6.1-9.9c0,0,64.7-17.2,74.3-37
	C604.6,327.9,610.1,323.4,604.6,313.2z M345.8,347c-5.1,7.7-14.6,49.2-14.6,49.2c-20.1-24.2-44.1-103-44.1-103
	c0.6-8.9,14.4-25.5,14.4-25.5c9.9-12.4,37.4-45.6,37.4-45.6h1l-3.5,16.3c-4.8,22,8.6,57.9,8.6,57.9l0.9,21.9
	C345.8,327.9,345.8,347,345.8,347z M566.6,311.3c-5.1,16.3-49.3,39.6-49.3,39.6c-8.3,1.3-15.3,10.8-15.3,10.8
	c-2.6-7-13.3-16.9-13.3-16.9c3.9-7,0.9-14.7,0.9-14.7c-3.2-11.2,3.2-22.3,3.2-22.3c4.5-3.8,2.5-11.8,2.5-11.8l3.8-9.6
	c7-8.9,9.5-20.8,9.5-20.8c0.7,16.4,13.6,18.7,13.6,18.7c16.1,10.6,7.3,23,7.3,23c13.1-15.6-1.7-27.4-1.7-27.4c5.4-1.9,9,5.4,9,5.4
	c-0.3-10.2-10.8-10.2-10.8-10.2c-11.5-2.9-6.1-9.6-6.1-9.6c6.4-6.7,10.3-12.8,10.3-12.8c16.3,12.8,36.3,56.7,36.3,56.7V311.3z"/>
</symbol>

<symbol id="hermaphrodite"  x="0px" y="0px" viewBox="0 0 768 1024" enable-background="new 0 0 768 1024" xml:space="preserve">
	<path fill="inherit" stroke="#000000" stroke-width="2" stroke-linecap="round" stroke-linejoin="round" stroke-miterlimit="10" d="
	M705.06,899.909c16.25-2.902,31.345,5.651,31.345,5.651c-8.828-15.129-20.502-18.593-30.141-18.178
	c19.888-12.067,43.258,1.171,43.258,1.171c-12.195-20.899-29.82-19.543-40.009-16.443c-2.653-3.796-8.032-5.64-8.032-5.64
	c2.013-2.331,2.676-4.781,2.234-7.308c18.711-7.768,38.637,3.518,38.637,3.518c-15.21-26.066-38.867-17.513-46.006-14.135
	c-25.711-22.523-108.689-46.504-108.689-46.504l-0.213,0.03c1.8-5.48,2.791-11.345,2.791-17.451
	c0-13.512-4.793-25.861-12.704-35.371c0.912,0.006,1.412-0.045,1.412-0.045c-0.269-0.342-0.521-0.689-0.782-1.034
	c5.715-7.596,10.972-15.679,15.721-24.193c5.468,8.516-3.477,34.568-3.477,34.568c31.216-23.657,21.291-57.219,17.947-66.055
	c0.061-0.164,0.12-0.329,0.18-0.493c7.865,11.482,20.75,9.824,20.75,9.824c18.095,6.31,4.975,49.366,4.975,49.366
	c41.621-44.37-11.107-90.264-11.107-90.264c32.55-3.594,36.639,25.727,36.639,25.727c11.135-18.588-19.964-36.727-38.754-45.617
	c1.409-10.66,2.152-21.58,2.152-32.706c0-28.637-4.853-55.935-13.628-80.83c18.497-28.926,30.103-70.578,30.103-116.88
	c0-12.8-0.893-25.242-2.568-37.161c35.456-15.57,33.232-87.028,33.232-87.028c29.287-18.497,23.121-121.771,23.121-121.771
	c13.873-55.491-9.248-28.517-9.248-28.517c-31.759,75.256-112.986,110.304-129.566,116.79c-0.324-0.043-0.651-0.075-0.976-0.112
	c50.224-31.754,44.224-112.824,44.224-112.824c-10.79-123.313-109.44-121.771-109.44-121.771
	c-55.491,6.166-31.157,16.955-31.157,16.955c49.325-4.624,69.692,44.701,69.692,44.701c24.663,78.612-38.535,105.422-38.535,105.422
	s-7.037,3.17-9.002,1.852c-13.78-56.345-52.648-96.951-98.448-96.951c-38.918,0-77.123,29.324-94.891,72.706
	c-9.245,8.55-5.123,7.304-13.751,11.85c-16.997-12.7-49.69-41.218-32.855-94.879c0,0,20.367-49.325,69.692-44.701
	c0,0,24.334-10.79-31.157-16.955c0,0-98.65-1.541-109.44,121.771c0,0-4.134,55.914,23.23,93.06c-2.13,2.497-4.221,5.041-6.273,7.63
	c-31.556-16.788-80.328-50.168-103.276-104.544c0,0-23.121-26.974-9.248,28.517c0,0-6.166,103.274,23.121,121.771
	c0,0-1.844,59.261,24.602,81.611c-27.614,32.168-44.558,75.554-44.558,123.31c0,30.221,6.79,58.691,18.767,83.682
	c-21.181,8.674-36.726,25.611-40.78,45.849c-18.95,8.931-48.648,26.456-37.896,44.735c0,0,4.323-29.287,36.843-25.433
	c0,0-53.093,45.471-11.828,90.172c0,0-12.775-43.159,5.37-49.325c0,0,14.124,1.942,21.927-11.36c0,0-19.513,40.647,16.495,68.392
	c0,0-11.346-33.911,0-36.994c0,0,14.566-0.763,23.345-9.108c1.487,0.329,2.994,0.615,4.516,0.866
	c-2.174,10.362-6.735,23.999-16.326,35.987c0,0,27.706,3.13,49.981-36.97l0.013-0.014c14.543-3.318,27.32-10.268,36.866-19.641
	c-1.212,7.085-1.848,14.374-1.848,21.816c0,17.233,3.391,33.653,9.523,48.595c-13.743,11.96-22.704,31.484-22.704,53.556
	c0,10.77,2.145,20.927,5.925,29.905c-20.722,13.432-67.913,45.465-82.409,67.538c-7.782-1.35-32.863-3.274-40.561,25.907
	c0,0,16.189-16.197,36.295-13.708c0.249,2.553,1.542,4.737,4.105,6.446c0,0-4.692,3.213-6.235,7.58
	c-10.646-0.267-27.993,3.133-34.165,26.53c0,0,18.987-18.998,41.375-12.68c-9.4,2.174-19.724,8.629-24.192,25.567
	c0,0,12.263-12.274,28.698-13.817c1.116,4.303,5.419,7.835,17.64,5.961c0,0,18.497-5.231,26.204-11.396
	c0,0-6.166,13.873-18.497,23.121c0,0-0.581,0.416-1.448,1.162c-12.138,1.997-38.914,10.336-36.09,45.025
	c0,0,15.985-13.88,35.057-20.929c1.159,0.839,2.49,1.67,4.023,2.488c0,0,23.121,7.707,40.077-7.707c0,0,28.352-19.242,22.186-30.032
	c0,0,38.881-12.873,30.222-53.204c0,0-10.79-7.619,10.79-36.906c0,0,81.703-0.416,44.245-37.956
	c1.208-2.997,2.239-6.118,3.066-9.349c9.233,2.296,18.873,3.522,28.793,3.522c24.065,0,46.498-7.164,65.397-19.523
	c22.884,12.521,48.383,19.523,75.273,19.523c16.47,0,32.416-2.635,47.563-7.544c3.629,6.508,8.527,12.166,14.343,16.621
	c-29.792,49.02,51.483,26.948,51.483,26.948c28.617,22.46,20.253,32.684,20.253,32.684c2.425,41.179,43.332,43.201,43.332,43.201
	c-3.06,12.045,29.4,23.017,29.4,23.017c20.456,10.326,40.679-3.275,40.679-3.275c1.259-1.197,2.319-2.353,3.212-3.472
	c20.262,1.701,39.373,10.807,39.373,10.807c-6.542-34.183-34.573-35.07-46.803-33.752c-1.035-0.487-1.706-0.733-1.706-0.733
	c-14.353-5.62-24-17.342-24-17.342c9.074,3.884,28.296,3.985,28.296,3.985C701.93,908.907,705.134,904.354,705.06,899.909z
	 M263.838,540.079c-47.563,0-86.12-38.879-86.12-86.838s38.557-86.838,86.12-86.838s86.12,38.879,86.12,86.838
	S311.401,540.079,263.838,540.079z M461.52,660.007c3.496-37.596-10.259-51.15-10.259-51.15
	c-23.784-12.952-101.64,7.537-101.64,7.537c-8.167,7.68-7.02,50.748-7.02,50.748c-30.203-24.07-34.215-66.967-34.215-66.967
	c66.881-35.648,182.792-21.034,182.792-21.034C496.88,626.25,461.52,660.007,461.52,660.007z M493.492,476.924
	c-22.989,0-41.625-19.6-41.625-43.778s18.636-43.778,41.625-43.778c22.989,0,41.625,19.6,41.625,43.778
	S516.481,476.924,493.492,476.924z"/>
</symbol>

<symbol id="none" x="0px" y="0px"
	 viewBox="223 328 1151 1173.7" enable-background="new 223 328 1151 1173.7" xml:space="preserve">
	<path fill="inherit" stroke="#1D1D1B" stroke-width="2" stroke-miterlimit="10" d="M1363.8,428c-1.8-8.9-6.4-19-12.3-26.1
	c-5-6-16.9-8.7-24.2-9.3c-11.6-0.9-21.4,6-32.2,4.9c-5.7-0.5-11.8,2.2-16.8,4.5c-5.3,2.6-11.1,4.5-16.1,7.7
	c-4.6,3.1-8.3,5.6-13.7,7.6c-5.4,2-10.2,6.1-14.2,10.2c-2,1.9-4.3,3.4-6.1,5.6c-0.7,0.8,0,1.8-1.2,2.6c-1.4,0.8-1.6-0.4-2.6-0.1
	c-5,1.1-10.8,4.3-13,9.3c-2.2,5.3-4.9,9.1-8.8,13.7c-1.5,1.8-2.6,4.2-4.3,5.6c-1.8,1.5-4.1,1.6-6.2,3.1c-4.1,2.7-8.1,8.3-10.7,12.5
	c-1.6,2.6-0.7,5.6-1.8,8c-0.8,1.8-4.9,4.7-6.5,5.8c0.4,0,0.7,0,1.1,0l-4.3,2.4c-7.2,7-16.1,12.7-23.4,20c-3.5,3.5-6,7.7-9.5,11.1
	c-3.3,3.1-7.4,5.6-11,8.3c-3.5,2.6-6.2,1.4-10,3.1c-3.4,1.6-6.1,6-8.8,8.4c-5.4,5-10.3,11.2-13.1,18.1c-4.9-4.7-14.1-1.8-19.8,0
	c-3.4,1.1-7.2,2.8-10,5c-2.6,2-3.4,4.5-5.6,6.8c-4.2-2-6.2-2.7-11-1.1c-3.7,1.2-6.9,3.9-9.3,7.2c0.1-0.5-0.1-1.1,0-1.5
	c-3.1-0.3-6.4-0.3-9.2,0.7c-3,1.1-5.7,3.3-8.7,4.1c-0.4-3.3-7.6-3.3-10-2.4c-2.4,0.7-5.3,3.7-7.4,5.4c-1.2-1.5-2.4-2.8-3.3-4.6
	c-4.9-0.4-8.9,0.3-13.5,1.2c-2.8,0.5-8.9,2.6-11.6,1.8c-2-0.7-2.4-3-4.5-3.7c-2-0.7-4.1,0.5-5.8,1.1c-2.6,0.9-8.3,4.5-9.2-0.4
	c-1.1-0.1-2.4-0.3-3.7-0.1c-4.9,0.5-9.5,3.1-14.9,1.9c-6-1.4-3.4-7.9-3.1-12.3c0.8-10.6,1.4-21.8,0.5-32.5
	c-0.7-10.3-1.2-20.6-1.2-31c0-5.7,0.3-11.4-0.7-16.8c-0.8-5.1-2-10.6-3.1-15.6c-1.8-9.2-2.6-19.5-4.9-28.7
	c-1.1-4.5-1.6-8.7-4.1-12.9c-2.4-4.2-6-8-9.1-12.1c-5.6-7.2-12.1-12.6-20.7-14.8c-9.3-2.4-20-4.9-29.8-4.9
	c-21.7,0-38.3,14.8-52,29.9c-12.2,13.5-23.6,28-37.9,39.8c-8.4,6.9-17.5,13.7-26.8,19.1c-10.4,6.1-21.9,9.9-32.4,15.7
	c-19.4,11-38.2,18.4-59.1,25.3c0,0-18.4-17.6-24.2-11.1c-7.9-7-10.3-18.8-23.4-16.7c0.3,0.8,0.7,1.2,0.9,2
	c-6.5-8.9-14-30.9-29.4-29.4c-0.3,0.5-0.3,1.2-0.1,1.8c-6.1-6.8-34.8-44.3-44.4-32c-6.6-11.8-18.8-24.7-32.6-27.2
	c-5.1-0.9-6.8,0.3-11.1-2.7c-3.1-2.2-5.7-6-8.4-8.7c-5.1-5.3-11-9.9-16.8-14.4c-12.1-9.5-24.4-18-36-27.4
	c-11.4-9.1-24.4-22.2-37.5-28c-5-2.2-11.8-2.2-16.8-3.4c-3.5-0.8-7.7-3.5-11.1-3.8c-5.3-0.5-8.8,1.2-13.4,2.8
	c-3.7,1.2-8.9,0.9-12.5,2.4c-4.9,2.2-3.9,6.5-7.4,10c-2.6,2.6-7,2.6-10,6.1c-5,6-10,17.6-11.2,24.8c-1.8,10.6,1.5,55,4.7,64.3
	c6,17.7,19.4,35.6,33.5,48.1c-0.3-9.2-9.5-26.1-19.5-28.4c-6.2-14.6-11.6-29.3-10.2-45.8c0.7-7.9,0.8-33.7,12.2-34.7
	c1.2,11.6,8.4,57.7,15.4,65.7c8.8,9.9,20.6,17.3,28,27.6c5.7,8,9.3,13,18.4,16c-2.6-5.8-11.4-11-15.4-16.5
	c-4.7-6.5-9.6-13-13.5-19.9c-4.5-7.7-8.5-15.2-11.5-23.3c-2.3-6.4-2.6-19.4-8.3-23.3c4.7-9.8,0-28.6,15.4-26.3
	c-4.1,12.5,12.3,63.5,21,74.4c4.3,5.4,24.1,25.1,28.6,31.4c3.5,5.1,7.3,11,11.2,15.8c3.8,4.9,10.2,8.4,13.5,13.5
	c-3.8-13-10.7-22.6-20.6-32.5c-8.9-8.8-13.4-21.8-19.6-32.4c-3.3-5.6-5.7-11.2-8.7-17.2c-2.3-4.5-7.3-9.1-8.8-13.8
	c-3.8-12.1,1.8-26.4,4.9-36.8c2.8,0.4,3.4,0.3,6,0c0.8,0.5,11.9,16.8,15.2,21c4.5,5.7,6.1,10.8,8.7,17.1c3.9,9.9,8.7,21.1,18.1,27.5
	c-2.3-6.1-22.2-47-10-45.6c1.5,4.6,5.3,8.3,7.7,12.2c3.4,5.7,5.8,12.6,9.1,18.7c8,15.2,17.7,30.2,24.2,45.9
	c7,16.9,7.3,36.8,11.6,54.7c3.4,14.1,4.7,28.3,7.6,42.5c1.9,9.2,5.8,18.4,6,27.8c2.2-15.3,1.2-31.2,0-46.7
	c-1.1-13.7-8.5-66-12.7-78.4c-3.5-10.7-11.2-23-11.9-33.5c2.4,3.4,5,8,6.9,12.3c17.7,39.4,25.7,83.6,32.9,125.4
	c2,12.3,0.9,25.9,0.9,38.5c0,11,6.2,73.1,22.1,85.6c0.4-5.1-3.5-11.9-4.7-17.3c-1.4-6-2-12.3-2.4-18.7c-0.7-12.1-3.4-23.6-2.3-35.9
	c0.7-0.3,3.5-18.8,3.5-18.8c5,6.6,7.3,17.7,8.7,26.1c1.5,8.8,4.2,16.5,7.4,24.8c3.7,9.2,7.6,16,12.2,24.9c3,5.7,3.7,12.2,5.3,18.7
	c0.9,3.9,3.5,8.1,3.7,12.1c0.1-29.8-10.4-60-7.2-89.9c2.7,11.4,7.4,23.7,9.3,35.9c2.7,17.2,7.6,37.7,6.4,55.3
	c8.3-9.1,6.2-23.4,6.2-34.7c0-14.9-0.1-30.7,1.5-45.5c5.4,15.2,5.8,32.5,7.2,49.6c1.9,23.7-4.7,45.1-8.4,69.2
	c-4.1,27-6.2,53.8-10.2,80.3c-2.2,14.4-4.5,27.5-8.5,41.7c-3.1,10.6-6.4,22.3-7.9,36.8c32.2-39.1,48.5-141.3,57.2-177.8
	c-0.1,21.3-15.8,96.4-18.7,112.4c-3.5,20.5-41.4,117.8-47,139.1c16.8-20.6,19.6-29.1,27.1-43.1c11-20.5,18-43.1,28.8-63.5
	c1.8,3.5-20.6,72.7-27.5,86.7c16-15.7,23.3-46.3,32.1-66.9c5.8-13.5,13.5-25.3,18.4-39.5c4.6-13.4,10.7-27.1,14.6-40.2
	c-2.8,14-7,28.3-11,42.4c-11.1,41-34.9,79.4-44.4,121.5c-10,45-34.8,88.4-94.7,173.8c43.6-29.4,82.5-106,91.2-120.1
	c5-8.1,9.3-19.4,15.7-26c-49.6,182.6-234.7,307.2-251.9,326.5c9.8,0,24.4-12.7,32.2-18.1c11.2-7.7,22.9-14.8,33.9-23
	c15.7-11.9,34-24.2,47-39c-16.3,31.8-122.4,121.2-128.9,125.1c18.7-5,36.4-19.1,53.1-28.7c18.3-10.6,34.4-27.6,50-41.9
	c21.1-19.4,41.3-40.6,63.1-59.1c13-11,26.7-24.8,40.8-34.4c1.5,24.8-88,98.1-107.4,121.2c23.4-11.8,42.7-32.4,63.9-47.8
	c20.2-14.6,41.7-37.4,64.9-46c17.5,25.9-215.1,167.9-246.2,184.9c-15.2,8.3-66,46.7-68.1,58.1c12.2-17.9,157-95.3,184.3-111.3
	c32.1-18.8,66-35.1,97.5-54.4c26.1-16.1,112.3-62.7,128.7-70.2c8.1-3.8,36-19.8,41.9-20.7c-4.1,10.4-17.7,19.9-26.3,27
	c-12.3,10-25.5,19.1-37.9,28.8c-24.2,19.1-51.9,30.1-78.6,44.7c-24.9,13.7-101.9,59.7-138.7,115.7c10.6-13.1,18.1-22.2,31.8-32.1
	c12.6-9.1,24.1-19,37.2-27.4c26-16.8,53.6-30.9,80.5-46.3c33.3-19.1,66.5-37.1,100.9-54.7c36.3-18.6,69.9-40,102.1-64.9
	c12.3-9.6,23.3-19.2,33.3-31c8-9.5,16.7-18.1,25.3-27.2c5.1-5.3,9.8-12.6,15-18c-6.1,6.4-11.1,15.8-15.6,22.8
	c-9.2,14.5-99.4,115.9-98.2,185.4c17.3-64.9,52.1-102,100.6-166.2c14.8-19.5,32.5-37.4,48.6-55.8c22.8-26,44-53.8,65.4-80.9
	c23.2-29.3,93.7-125.6,108.4-142.9c16.7-19.6,33.6-37.1,45.8-59.6c-1.1,11.8-11,27-16.4,37.8c-6.8,13.3-15,25.2-20.3,38.9
	c-8.4,21.9-22.6,43.9-36.3,63.1c-16.1,22.5-39.4,40.6-53.2,64.7c37.7-25.1,65.7-59.5,87.1-99.1c10.8-20.2,23.6-38.1,34.1-58.4
	c6-11.5,11.6-23.3,17.5-34.8c2.4-4.9,12.9-22.8,11.5-24.8l5-6.2c-1.1-1.9,4.7-12.5,6.1-15.3c8-18,32.8-76,46.6-108.1
	c3.3-2.8,5.7-5.4,6.5-7c82.5-160.9,80.2-190.8,83.8-200c4.1-10,10.8-18.1,12.9-29c1.2-6.9,5-10,9.3-15c2.7-3,7.7-10.4,12.3-9.9
	c1.2,15.3-4.6,31.3-9.6,45.8c-3.7,10.3-31.6,97.9-33.9,105.8c-5.4,18.6-11.2,37.9-19.8,55.3c-3.4,6.9-9.3,27.4-50.9,80.2
	c49.7-38.5,55.4-68.5,60.8-77.7c41.7-69.5,69.6-193.5,70.4-196.3c1.2-4.5,3-10.6,6.1-14.1c2,3.3,0.3,7.6,1.1,11
	c7.6,29.8-17.2,86.8-19.2,92c-0.9,2.4-2.6,4.1-3,6.8c-0.3,1.9,27.9-36.2,36.7-81.4c1.8-9.5-1.6-19.5-0.5-28.4
	c1.9-0.4,2.8-2.3,4.5-1.5c1.4,0.7,2,3.4,2.3,4.5c1.2,4.1,0.1,20.3,0.1,24.7c0,2.8-12.5,61.2-18.3,70.4
	c21.8-21.1,35.3-79.4,36.7-83.8c0.9-3.3,1.4-9.9,4.9-11.1c0.5,6.8-1.4,12.7-1.8,19.2c-0.4,6.4-9.1,46.7-12.7,52.1
	c1.8-2.3,6.1-8.1,9.1-15.4c15.2-38.3,16.9-57.2,17.5-61.5C1367.2,446.6,1365.6,436.7,1363.8,428z M861.9,490.7
	c0.4-2.3,3-6.1,4.9-7.3c0.8,5.3-2.6,9.9,2.4,13.5c0.3-2,1.4-3.4,1.4-5.6c0-2-0.7-4.3-0.5-6.8c3.7,0.7,4.5,7.3,4.7,10.4
	c0.7,7.6-3,2.8-8,3.8l-1.9,1.2C863,499.4,861.4,493.3,861.9,490.7z M838.5,482.6c-1.9-0.3-6.4-3.5-6.4-3.5c-0.7-3.1,6.6-6.9,9.2-7.6
	c4.2-1.2,11.2,0.5,14.4,3.9c4.9,5.1-4.6,7-8.3,7.3C844.6,482.8,841.3,483,838.5,482.6z M881.8,528.7c0,4.6-0.3,9.3-1.8,13.7
	c-0.9,2.7-1.2,10-3.3,11.6c0.1-5.4-0.3-8.7-2.3-13c-2.8-5.8-3.8-4.5-8.9-1.9c-4.2,2.2-8-0.8-10.4,4.5c-0.9,1.8-1.5,4.2-2.4,6.2
	c-0.8,1.5-1.6,3.3-1.9,5.1v1.8c-0.1-0.5-0.1-1.1,0-1.8v-8.8c-0.1-8.9-2.4-17.5,0.5-26.1c2-5.7,5.8-5.3,10.2-7.9
	c3.4-2.2,5.1-5.4,10-3.4c1.9,0.8,7.9,5,9.1,6.5C883,518.2,881.8,524.7,881.8,528.7z M903.5,479.5c-4.6,1.5-8.7,2.7-13.5,3.3
	c-2.7,0.3-5.6,0.3-8-0.8c-1.6-0.7-5.1-6.6-5.1-6.6c-1.2-6.5,11.2-6.5,14.8-5.4C894.3,470.6,904.3,476.1,903.5,479.5z M1252.1,493.3
	c-0.9,4.9-26.7,65.8-49.3,119.2c12.7-41.4,28-90.9,31.8-103.1c2.4-7.9,3.3-17.2,8.8-23.6C1251.2,476.9,1252.8,489.3,1252.1,493.3z"
	/>
</symbol>

</svg>
