<?xml version="1.0" encoding="UTF-8"?>
<svg width="16px" height="16px" viewBox="0 0 16 16" version="1.1" xmlns="http://www.w3.org/2000/svg" xmlns:xlink="http://www.w3.org/1999/xlink">
    <!-- Generator: sketchtool 40.1 (33804) - http://www.bohemiancoding.com/sketch -->
    <title>28C4B693-7672-47D2-8AB6-4B1A3ADF61DD</title>
    <desc>Created with sketchtool.</desc>
    <defs></defs>
    <g id="Page-1" stroke="none" stroke-width="1" fill="none" fill-rule="evenodd">
        <g id="Cart-#1" transform="translate(-1112.000000, -313.000000)">
            <g id="Row-1" transform="translate(80.000000, 296.000000)">
                <g id="Delete" transform="translate(1033.000000, 18.000000)">
                    <g id="X" transform="translate(3.000000, 4.000000)" fill="#868686">
                        <path d="M5.506,3.153 L6.835,4.482 C7.21,4.857 7.21,5.465 6.835,5.84 C6.46,6.215 5.852,6.215 5.478,5.84 L4.148,4.511 L2.706,5.953 C2.315,6.344 1.682,6.344 1.292,5.953 C0.901,5.563 0.901,4.929 1.292,4.539 L2.734,3.097 L1.405,1.767 C1.03,1.392 1.03,0.784 1.405,0.41 C1.78,0.035 2.387,0.035 2.762,0.41 L4.092,1.739 L5.534,0.296 C5.925,-0.094 6.558,-0.094 6.948,0.296 C7.339,0.687 7.339,1.32 6.948,1.711 L5.506,3.153 Z" id="Shape"></path>
                    </g>
                    <g id="Delete-Ellipse" stroke="#9C9C9C">
                        <circle id="Oval" cx="7" cy="7" r="6.53333333"></circle>
                    </g>
                </g>
            </g>
        </g>
    </g>
</svg>