<svg width="22" height="13" viewBox="0 0 22 13" xmlns="http://www.w3.org/2000/svg"><title>B803B5C7-244E-4106-9103-3CDEFBBA9695</title><path d="M3.704 8.198c.486 1.57 1.105 2.256 3.167 2.976 2.064.718 3.044 1.504 3.853 1.504.809 0 1.728-.687 3.79-1.407 2.064-.72 1.513-.939 2-2.509l-5.79 2.245-7.02-2.81zm16.99-4.096L11.967.207c-.684-.305-1.803-.305-2.487 0L.754 4.102c-.683.305-.683.804 0 1.11L9.48 9.106c.684.305 1.803.305 2.486 0l5.642-2.519-6.117-1.142a4.028 4.028 0 0 1-.767.072c-1.102 0-1.995-.423-1.995-.945 0-.524.894-.947 1.995-.947.856 0 1.583.257 1.866.614l6.48 1.695 1.623-.724c.683-.305.683-.804 0-1.11zm-2.667 7.381c-.068.322 1.345.85 1.479-.09.607-4.237-.436-5.456-.436-5.456l-1.462.652s1.24.94.419 4.894z" fill="#D6D8D9" fill-rule="evenodd"/></svg>