<?xml version="1.0" encoding="UTF-8"?>
<svg width="145px" height="60px" viewBox="0 0 145 60" version="1.1" xmlns="http://www.w3.org/2000/svg" xmlns:xlink="http://www.w3.org/1999/xlink">
    <!-- Generator: sketchtool 40.1 (33804) - http://www.bohemiancoding.com/sketch -->
    <title>27031AD9-BC60-44CD-882D-34695D649E2F</title>
    <desc>Created with sketchtool.</desc>
    <defs></defs>
    <g id="curriculum-vitae" stroke="none" stroke-width="1" fill="none" fill-rule="evenodd">
        <g id="Главная-страница" transform="translate(-213.000000, -22.000000)">
            <g id="content">
                <g id="HEADER">
                    <g id="logo" transform="translate(213.000000, 22.000000)">
                        <g id="Layer_1">
                            <g>
                                <polygon id="Shape" fill="#ED1B2F" points="0 0 145 0 145 60 0 60"></polygon>
                                <path d="M70.5,43.8 L70.5,42.9 L68,42.9 L68,17.1 L68.8,17.1 C72.3,17.1 73.5,22.4 73.8,25.1 L75,25.1 L74.8,16.2 L56.8,16.2 L56.6,25.1 L57.7,25.1 C58.4,20.2 60,17.1 62.8,17.1 L63.5,17.1 L63.5,42.9 L61,42.9 L61,43.8 L70.5,43.8 L70.5,43.8 L70.5,43.8 Z" id="Shape" fill="#FFFFFF"></path>
                                <path d="M39.8,16.2 L39.8,17.1 L42.3,17.1 L42.3,19.6 C38.6,19.4 32.6,20.8 32.6,30.3 C32.6,40.7 39.1,41.2 42.3,41 L42.3,43.6 L39.8,43.6 L39.8,44.5 L49.3,44.5 L49.3,43.6 L46.8,43.6 L46.8,41 C49.9,41.2 56.5,40.5 56.5,30.3 C56.5,20.8 50.5,19.5 46.8,19.6 L46.8,17.1 L49.3,17.1 L49.3,16.2 L39.8,16.2 L39.8,16.2 L39.8,16.2 Z M46.8,20.5 L47.6,20.5 C50.8,20.5 51.3,23.4 51.3,25.2 L51.3,34.9 C51.3,37.5 50.7,40 47.7,40 L46.7,40 L46.7,20.5 L46.8,20.5 L46.8,20.5 Z M42.3,40 L41.6,40 C38.6,40 37.8,37.9 37.8,34.9 L37.8,25.2 C37.8,20.7 40.6,20.5 41.7,20.5 L42.4,20.5 L42.4,40 L42.3,40 L42.3,40 Z" id="Shape" fill="#FFFFFF"></path>
                                <path d="M25.3,42.9 L18.4,42.9 L18.4,17.1 L20.5,17.1 L20.5,16.2 L11.4,16.2 L11.4,17.1 L13.9,17.1 L13.9,42.9 L11.4,42.9 L11.4,43.8 L27.2,43.8 C28.1,43.8 30.9,43.5 32.5,50.2 L33.4,50.2 L33,42.9 L29.9,42.9 L29.9,17.1 L32.4,17.1 L32.4,16.2 L23.3,16.2 L23.3,17.1 L25.4,17.1 L25.4,42.9 L25.3,42.9 L25.3,42.9 Z" id="Shape" fill="#FFFFFF"></path>
                                <path d="M82.4,16.3 L81.1,16.3 L81.1,22.9 L84.6,22.9 L84.6,24.3 L85.7,24.3 L85.7,21.9 L85.4,21.9 L85.4,16.3 L84.1,16.3 L84.1,21.9 L82.4,21.9 L82.4,16.3 L82.4,16.3 L82.4,16.3 Z M86.4,16.3 L86.4,22.9 L90,22.9 L90,21.9 L87.7,21.9 L87.7,19.9 L89.7,19.9 L89.7,18.9 L87.7,18.9 L87.7,17.4 L90,17.4 L90,16.4 L86.4,16.4 L86.4,16.3 L86.4,16.3 Z M92,16.3 L90.7,16.3 L90.7,22.9 L92,22.9 L92,19.9 L93.6,19.9 L93.6,22.9 L94.9,22.9 L94.9,16.3 L93.6,16.3 L93.6,18.8 L92,18.8 L92,16.3 L92,16.3 L92,16.3 Z M98.3,17.3 L99.8,17.3 L99.8,16.3 L95.4,16.3 L95.4,17.3 L97,17.3 L97,22.9 L98.3,22.9 L98.3,17.3 L98.3,17.3 L98.3,17.3 Z M101.7,20.2 L102.8,20.2 C103.9,20.2 104.6,19.4 104.6,18.3 C104.6,17.2 103.9,16.4 102.8,16.4 L100.4,16.4 L100.4,23 L101.7,23 L101.7,20.2 L101.7,20.2 L101.7,20.2 Z M101.7,17.2 L102.4,17.2 C103,17.2 103.3,17.6 103.3,18.2 C103.3,18.8 103,19.2 102.4,19.2 L101.7,19.2 L101.7,17.2 L101.7,17.2 L101.7,17.2 Z M83.5,26.8 L83.5,27.5 L83.2,27.5 C82.1,27.5 81,28.3 81,30 C81,31.9 82.1,32.5 83.2,32.5 L83.5,32.5 L83.5,33.3 L84.8,33.3 L84.8,32.5 L85.1,32.5 C86.2,32.5 87.3,31.8 87.3,30 C87.3,28.3 86.2,27.5 85.1,27.5 L84.8,27.5 L84.8,26.8 L83.5,26.8 L83.5,26.8 L83.5,26.8 Z M83.5,31.5 L83.2,31.5 C82.6,31.5 82.3,31 82.3,30 C82.3,29.2 82.6,28.5 83.2,28.5 L83.5,28.5 L83.5,31.5 L83.5,31.5 L83.5,31.5 Z M84.7,28.4 L85,28.4 C85.7,28.4 86,29.1 86,29.9 C86,30.9 85.7,31.4 85,31.4 L84.7,31.4 L84.7,28.4 L84.7,28.4 L84.7,28.4 Z M88,26.8 L88,33.4 L89.4,33.4 L91.3,28.6 L91.3,28.6 C91.1,29.2 91.1,29.9 91.1,30.9 L91.1,33.4 L92.3,33.4 L92.3,26.8 L90.9,26.8 L89,31.5 L89,31.5 C89.1,31 89.2,30 89.2,29.2 L89.2,26.8 L88,26.8 L88,26.8 L88,26.8 Z M94.4,26.8 L93.2,26.8 L93.2,33.4 L94.4,33.4 L94.4,30.4 L96.1,30.4 L96.1,33.4 L97.4,33.4 L97.4,26.8 L96.1,26.8 L96.1,29.3 L94.4,29.3 L94.4,26.8 L94.4,26.8 L94.4,26.8 Z M97.8,33.3 L99.2,33.3 L99.5,31.5 L100.9,31.5 L101.2,33.3 L102.6,33.3 L101.1,26.7 L99.5,26.7 L97.8,33.3 L97.8,33.3 L97.8,33.3 Z M99.7,30.6 L100.3,27.5 L100.8,30.6 L99.7,30.6 L99.7,30.6 L99.7,30.6 Z M104.4,26.8 L103.1,26.8 L103.1,33.4 L104.4,33.4 L104.4,30.4 L106,30.4 L106,33.4 L107.3,33.4 L107.3,26.8 L106,26.8 L106,29.3 L104.4,29.3 L104.4,26.8 L104.4,26.8 L104.4,26.8 Z M112.2,28.9 L112.2,28.6 C112.2,27.4 111.5,26.7 110.3,26.7 C109,26.7 108.2,27.5 108.2,29 L108.2,31.4 C108.2,32.6 108.6,33.7 110.2,33.7 C111.8,33.7 112.2,32.6 112.2,31.4 L112.2,31 L110.9,31 L110.9,31.3 C110.9,32.1 110.6,32.5 110.1,32.5 C109.6,32.5 109.4,32.2 109.4,31.3 L109.4,28.7 C109.4,27.9 109.6,27.6 110.1,27.6 C110.7,27.6 110.9,27.9 110.9,28.7 L110.9,28.9 L112.2,28.9 L112.2,28.9 L112.2,28.9 Z M113,28.9 L113,31.3 C113,33 113.8,33.6 115.1,33.6 C116.4,33.6 117.2,33 117.2,31.3 L117.2,28.9 C117.2,27.2 116.4,26.6 115.1,26.6 C113.8,26.6 113,27.2 113,28.9 L113,28.9 L113,28.9 Z M115.1,27.6 C115.7,27.6 115.9,28 115.9,28.7 L115.9,31.4 C115.9,32.1 115.6,32.5 115.1,32.5 C114.5,32.5 114.3,32.1 114.3,31.4 L114.3,28.7 C114.3,28 114.5,27.6 115.1,27.6 L115.1,27.6 L115.1,27.6 Z M119.4,27.7 L120.1,27.7 C120.7,27.7 120.9,28 120.9,28.5 C120.9,29 120.7,29.3 120.1,29.3 L119.4,29.3 L119.4,27.7 L119.4,27.7 L119.4,27.7 Z M119.4,30.3 L120.2,30.3 C120.6,30.3 120.9,30.7 120.9,31.3 C120.9,32.1 120.6,32.4 120.2,32.4 L119.4,32.4 L119.4,30.3 L119.4,30.3 L119.4,30.3 Z M118.2,33.3 L120.6,33.3 C121.6,33.3 122.1,32.5 122.1,31.4 C122.1,30.5 121.8,30 121.2,29.8 C121.7,29.6 122,29 122,28.4 C122,27.6 121.6,26.8 120.4,26.8 L118.1,26.8 L118.1,33.3 L118.2,33.3 L118.2,33.3 Z M124.2,30.3 L125,30.3 C125.4,30.3 125.8,30.7 125.8,31.3 C125.8,32.1 125.5,32.4 125,32.4 L124.2,32.4 L124.2,30.3 L124.2,30.3 L124.2,30.3 Z M124.2,26.8 L123,26.8 L123,33.4 L125.4,33.4 C126.4,33.4 127,32.6 127,31.3 C127,30.4 126.3,29.4 125.3,29.4 L124.2,29.4 L124.2,26.8 L124.2,26.8 L124.2,26.8 Z M129.2,26.8 L127.9,26.8 L127.9,33.4 L129.2,33.4 L129.2,26.8 L129.2,26.8 L129.2,26.8 Z M129.8,26.8 L131.3,30 L129.7,33.4 L131.1,33.4 L132.1,31 L133,33.4 L134.4,33.4 L132.7,30 L134.3,26.8 L133,26.8 L132.2,28.9 L131.4,26.8 L129.8,26.8 L129.8,26.8 L129.8,26.8 Z M83.6,38.2 L85.2,38.2 L85.2,37.2 L80.8,37.2 L80.8,38.2 L82.3,38.2 L82.3,43.8 L83.6,43.8 L83.6,38.2 L83.6,38.2 L83.6,38.2 Z M85.8,37.1 L85.8,43.7 L89.3,43.7 L89.3,42.7 L87,42.7 L87,40.7 L89,40.7 L89,39.7 L87,39.7 L87,38.2 L89.3,38.2 L89.3,37.2 L85.8,37.2 L85.8,37.1 L85.8,37.1 Z M89.9,37.1 L91.4,40.3 L89.8,43.7 L91.2,43.7 L92.2,41.3 L93.2,43.7 L94.6,43.7 L92.9,40.3 L94.5,37.1 L93.2,37.1 L92.3,39.3 L91.5,37.1 L89.9,37.1 L89.9,37.1 L89.9,37.1 Z M96.4,37.1 L95.1,37.1 L95.1,43.7 L96.4,43.7 L96.4,40.7 L98.1,40.7 L98.1,43.7 L99.3,43.7 L99.3,37.1 L98.1,37.1 L98.1,39.6 L96.4,39.6 L96.4,37.1 L96.4,37.1 L96.4,37.1 Z M100.2,39.3 L100.2,41.7 C100.2,43.4 101,43.9 102.3,43.9 C103.6,43.9 104.4,43.4 104.4,41.7 L104.4,39.3 C104.4,37.6 103.6,37 102.3,37 C101,37 100.2,37.6 100.2,39.3 L100.2,39.3 L100.2,39.3 Z M102.3,38.1 C102.9,38.1 103.1,38.5 103.1,39.2 L103.1,41.9 C103.1,42.6 102.8,42.9 102.3,42.9 C101.7,42.9 101.5,42.6 101.5,41.9 L101.5,39.2 C101.5,38.5 101.7,38.1 102.3,38.1 L102.3,38.1 L102.3,38.1 Z M105.9,37.1 L105.9,40.3 C105.9,42.7 105.7,42.8 105.3,42.8 L105,42.8 L105,43.7 C105.2,43.8 105.4,43.8 105.8,43.8 C106.8,43.8 107.2,42.8 107.2,40.6 L107.2,38.1 L108.5,38.1 L108.5,43.7 L109.8,43.7 L109.8,37.1 L105.9,37.1 L105.9,37.1 L105.9,37.1 Z M110.7,39.3 L110.7,41.7 C110.7,43.4 111.5,43.9 112.8,43.9 C114.1,43.9 114.9,43.4 114.9,41.7 L114.9,39.3 C114.9,37.6 114.1,37 112.8,37 C111.5,37.1 110.7,37.6 110.7,39.3 L110.7,39.3 L110.7,39.3 Z M112.8,38.1 C113.4,38.1 113.6,38.5 113.6,39.2 L113.6,41.9 C113.6,42.6 113.3,42.9 112.8,42.9 C112.2,42.9 112,42.6 112,41.9 L112,39.2 C111.9,38.5 112.2,38.1 112.8,38.1 L112.8,38.1 L112.8,38.1 Z M115.8,37.1 L115.8,43.7 L117,43.7 L117,38.1 L119.3,38.1 L119.3,37.1 L115.8,37.1 L115.8,37.1 L115.8,37.1 Z M119.9,37.1 L119.9,43.7 L121.3,43.7 L123.2,39 L123.2,39 C123.1,39.6 123,40.3 123,41.3 L123,43.7 L124.2,43.7 L124.2,37.1 L122.8,37.1 L120.9,41.9 L120.9,41.9 C121.1,41.4 121.1,40.4 121.1,39.6 L121.1,37.1 L119.9,37.1 L119.9,37.1 L119.9,37.1 Z M125,37.1 L125,43.7 L126.4,43.7 L128.2,39 L128.3,39 C128.1,39.6 128.1,40.3 128.1,41.3 L128.1,43.7 L129.3,43.7 L129.3,37.1 L127.9,37.1 L126,42 L126,42 C126.1,41.5 126.2,40.5 126.2,39.7 L126.2,37.2 L125,37.2 L125,37.1 L125,37.1 Z M125.8,35.4 C125.8,36.1 126.1,36.8 127.1,36.8 C128.2,36.8 128.5,36.1 128.5,35.4 L127.8,35.4 C127.8,35.9 127.5,36.2 127.1,36.2 C126.7,36.2 126.4,35.9 126.4,35.4 L125.8,35.4 L125.8,35.4 L125.8,35.4 Z" id="Shape" fill="#FFFFFF"></path>
                                <path d="M132.1,16.2 C132.5,16.2 132.9,16.3 133.3,16.5 C133.7,16.7 134,17 134.2,17.4 C134.4,17.8 134.5,18.2 134.5,18.6 C134.5,19 134.4,19.4 134.2,19.8 C134,20.2 133.7,20.5 133.3,20.7 C132.9,20.9 132.5,21 132.1,21 C131.7,21 131.3,20.9 130.9,20.7 C130.5,20.5 130.2,20.2 130,19.8 C129.8,19.4 129.7,19 129.7,18.6 C129.7,18.2 129.8,17.8 130,17.4 C130.2,17 130.5,16.7 130.9,16.5 C131.3,16.3 131.7,16.2 132.1,16.2 L132.1,16.2 L132.1,16.2 Z M132.1,16.6 C131.8,16.6 131.4,16.7 131.1,16.9 C130.8,17.1 130.5,17.3 130.4,17.6 C130.2,17.9 130.1,18.2 130.1,18.6 C130.1,18.9 130.2,19.3 130.4,19.6 C130.6,19.9 130.8,20.2 131.1,20.3 C131.4,20.5 131.7,20.6 132.1,20.6 C132.4,20.6 132.8,20.5 133.1,20.3 C133.4,20.1 133.7,19.9 133.8,19.6 C134,19.3 134.1,19 134.1,18.6 C134.1,18.3 134,17.9 133.8,17.6 C133.6,17.3 133.4,17 133.1,16.9 C132.8,16.7 132.4,16.6 132.1,16.6 L132.1,16.6 L132.1,16.6 Z M131.2,19.9 L131.2,17.4 L132.1,17.4 C132.4,17.4 132.6,17.4 132.7,17.5 C132.8,17.5 132.9,17.6 133,17.7 C133.1,17.8 133.1,17.9 133.1,18.1 C133.1,18.3 133,18.4 132.9,18.6 C132.8,18.7 132.6,18.8 132.4,18.8 C132.5,18.8 132.6,18.9 132.6,18.9 C132.7,19 132.8,19.2 133,19.4 L133.3,19.9 L132.8,19.9 L132.6,19.5 C132.4,19.2 132.3,19 132.2,18.9 C132.1,18.8 132,18.8 131.9,18.8 L131.7,18.8 L131.7,19.9 L131.2,19.9 L131.2,19.9 L131.2,19.9 Z M131.6,18.4 L132.1,18.4 C132.3,18.4 132.5,18.4 132.6,18.3 C132.7,18.2 132.7,18.1 132.7,18 C132.7,17.9 132.7,17.9 132.6,17.8 C132.6,17.7 132.5,17.7 132.4,17.7 L132,17.7 L131.5,17.7 L131.5,18.4 L131.6,18.4 L131.6,18.4 Z" id="Shape" fill="#FFFFFF"></path>
                            </g>
                        </g>
                    </g>
                </g>
            </g>
        </g>
    </g>
</svg>