<?xml version="1.0" encoding="UTF-8"?>
<svg width="61px" height="36px" viewBox="0 0 61 36" version="1.1" xmlns="http://www.w3.org/2000/svg" xmlns:xlink="http://www.w3.org/1999/xlink">
    <!-- Generator: sketchtool 40.1 (33804) - http://www.bohemiancoding.com/sketch -->
    <title>9E3C3765-0AFF-446E-B86B-27C9542ED0EF</title>
    <desc>Created with sketchtool.</desc>
    <defs></defs>
    <g id="Page-1" stroke="none" stroke-width="1" fill="none" fill-rule="evenodd">
        <g id="Cart-#2" transform="translate(-671.000000, -308.000000)" fill="#9FA3A7">
            <g id="Front" transform="translate(334.000000, 280.000000)">
                <g id="Master-Card" transform="translate(336.000000, 27.000000)">
                    <path d="M46.388,20.241 C46.72,20.241 46.757,20.271 46.813,20.283 C46.849,20.605 46.61,22.114 45.435,22.114 C44.832,22.114 44.679,21.666 44.679,21.393 C44.679,20.871 44.968,20.241 46.388,20.241 L46.388,20.241 L46.388,20.241 Z M14.884,20.241 C15.216,20.241 15.247,20.271 15.303,20.283 C15.339,20.605 15.1,22.114 13.931,22.114 C13.328,22.114 13.168,21.666 13.168,21.393 C13.168,20.871 13.458,20.241 14.884,20.241 L14.884,20.241 L14.884,20.241 Z M31.543,32.312 L31.536,32.312 C31.526,32.325 31.507,32.337 31.494,32.349 C34.735,35.241 39.027,37.005 43.744,37.005 C53.829,36.999 61.996,28.941 61.996,18.998 L61.996,18.992 C61.996,9.055 53.823,0.997 43.738,0.997 L43.738,0.997 C39.027,0.997 34.729,2.762 31.494,5.653 C28.253,2.762 23.961,1.004 19.257,1.004 L19.139,1.004 C9.115,1.063 0.999,9.102 0.999,18.998 C0.999,28.935 9.177,36.999 19.257,36.999 C23.961,36.999 28.253,35.241 31.494,32.349 L31.543,32.312 Z M8.451,23.588 L9.56,16.706 L7.063,23.588 L5.722,23.588 L5.55,16.706 L4.363,23.588 L2.486,23.588 L4.044,14.458 L6.877,14.458 L6.982,20.059 L8.895,14.458 L11.97,14.458 L10.438,23.588 L8.451,23.588 L8.451,23.588 Z M15.08,23.576 L15.148,22.842 C15.118,22.842 14.521,23.721 13.15,23.721 C12.438,23.721 11.274,23.339 11.274,21.654 C11.274,19.525 13.039,18.816 14.725,18.816 C14.99,18.816 15.555,18.865 15.555,18.865 C15.555,18.865 15.622,18.731 15.622,18.38 C15.622,17.797 15.093,17.719 14.368,17.719 C13.096,17.719 12.252,18.058 12.252,18.058 L12.535,16.404 C12.535,16.404 13.557,15.985 14.884,15.985 C15.573,15.985 17.56,16.057 17.56,18.295 L16.79,23.569 L15.08,23.569 L15.08,23.576 L15.08,23.576 Z M22.313,21.248 C22.313,23.794 19.816,23.685 19.374,23.685 C17.745,23.685 17.239,23.46 17.197,23.448 L17.455,21.775 C17.455,21.757 18.273,22.066 19.183,22.066 C19.706,22.066 20.381,22.017 20.381,21.399 C20.381,20.471 17.954,20.696 17.954,18.501 C17.954,16.567 19.41,15.997 20.849,15.997 C21.955,15.997 22.639,16.149 22.639,16.149 L22.399,17.839 C22.399,17.839 21.341,17.756 21.071,17.756 C20.377,17.756 20,17.9 20,18.38 C20,19.338 22.313,18.865 22.313,21.248 L22.313,21.248 L22.313,21.248 Z M25.32,21.914 C25.493,21.914 25.69,21.854 25.825,21.854 L25.578,23.485 C25.381,23.539 24.829,23.733 24.122,23.739 C23.216,23.745 22.571,23.242 22.571,22.114 C22.571,21.35 23.678,15.087 23.722,15.05 L25.665,15.05 L25.468,16.166 L26.432,16.166 L26.187,17.972 L25.161,17.972 L24.613,21.296 C24.57,21.557 24.644,21.914 25.32,21.914 L25.32,21.914 L25.32,21.914 Z M29.594,15.955 C31.728,15.955 32.367,17.495 32.367,18.756 C32.367,19.265 32.109,20.508 32.109,20.508 L28.161,20.508 C28.161,20.508 27.797,22.041 29.884,22.041 C30.861,22.041 31.949,21.569 31.949,21.569 L31.604,23.418 C31.604,23.418 30.978,23.733 29.552,23.733 C28.007,23.733 26.193,23.085 26.193,20.38 C26.193,18.033 27.638,15.955 29.594,15.955 L29.594,15.955 L29.594,15.955 Z M34.311,23.6 L32.312,23.6 L33.53,16.173 L35.336,16.173 L35.165,17.246 C35.165,17.246 35.805,16.076 36.678,16.076 C36.93,16.076 37.053,16.099 37.053,16.099 C36.795,16.621 36.568,17.094 36.328,18.325 C34.981,17.852 34.876,20.429 34.311,23.6 L34.311,23.6 L34.311,23.6 Z M41.911,23.485 C41.911,23.485 40.866,23.745 40.208,23.745 C37.89,23.745 36.715,22.169 36.715,19.78 C36.715,16.173 38.898,14.251 41.137,14.251 C42.151,14.251 43.326,14.724 43.326,14.724 L43.012,16.755 C43.012,16.755 42.213,16.204 41.229,16.204 C39.907,16.204 38.72,17.451 38.72,19.713 C38.72,20.823 39.273,21.866 40.651,21.866 C41.309,21.866 42.256,21.393 42.256,21.393 L41.911,23.485 L41.911,23.485 Z M46.591,23.576 L46.653,22.842 C46.622,22.842 46.032,23.721 44.66,23.721 C43.941,23.721 42.785,23.339 42.785,21.654 C42.785,19.525 44.55,18.816 46.228,18.816 C46.493,18.816 47.065,18.865 47.065,18.865 C47.065,18.865 47.132,18.731 47.132,18.38 C47.132,17.797 46.604,17.719 45.878,17.719 C44.599,17.719 43.763,18.058 43.763,18.058 L44.039,16.404 C44.039,16.404 45.066,15.985 46.394,15.985 C47.083,15.985 49.07,16.057 49.063,18.295 L48.301,23.569 C48.301,23.576 46.591,23.576 46.591,23.576 L46.591,23.576 L46.591,23.576 Z M50.625,23.6 L48.633,23.6 L49.844,16.173 L51.658,16.173 L51.48,17.246 C51.48,17.246 52.126,16.076 52.999,16.076 C53.251,16.076 53.374,16.099 53.374,16.099 C53.116,16.621 52.888,17.094 52.648,18.325 C51.302,17.852 51.197,20.429 50.625,23.6 L50.625,23.6 L50.625,23.6 Z M57.593,17.033 L58.011,14.468 L59.96,14.464 L58.472,23.576 L56.584,23.576 L56.67,22.896 C56.67,22.896 56.024,23.697 54.856,23.697 C53.245,23.697 52.452,22.157 52.452,20.587 C52.452,18.155 53.934,16.032 55.717,16.032 C56.861,16.039 57.593,17.033 57.593,17.033 L57.593,17.033 L57.593,17.033 Z M30.497,18.986 L28.339,18.986 C28.339,18.858 28.542,17.67 29.6,17.67 C30.701,17.67 30.497,18.889 30.497,18.986 L30.497,18.986 L30.497,18.986 Z M56.049,17.883 C56.75,17.883 57.107,18.355 57.107,19.471 C57.107,20.477 56.603,21.836 55.551,21.836 C54.85,21.836 54.518,21.253 54.518,20.344 C54.518,18.858 55.194,17.883 56.049,17.883 L56.049,17.883 L56.049,17.883 Z" id="Shape"></path>
                </g>
            </g>
        </g>
    </g>
</svg>