<?xml version="1.0" encoding="UTF-8"?>
<svg width="58px" height="19px" viewBox="0 0 58 19" version="1.1" xmlns="http://www.w3.org/2000/svg" xmlns:xlink="http://www.w3.org/1999/xlink">
    <!-- Generator: sketchtool 40.1 (33804) - http://www.bohemiancoding.com/sketch -->
    <title>9F941A24-5A72-4414-99D1-4DD0F036F3E8</title>
    <desc>Created with sketchtool.</desc>
    <defs></defs>
    <g id="Page-1" stroke="none" stroke-width="1" fill="none" fill-rule="evenodd">
        <g id="Cart-#2" transform="translate(-669.000000, -368.000000)" fill="#9FA3A7">
            <g id="Front" transform="translate(334.000000, 280.000000)">
                <g id="Visa" transform="translate(335.000000, 87.000000)">
                    <path d="M53.642,19.73 C53.642,19.73 53.211,17.616 53.07,16.972 C52.386,16.972 47.596,16.964 47.057,16.964 C46.874,17.461 46.068,19.73 46.068,19.73 L41.137,19.73 L48.111,2.862 C48.605,1.664 49.446,1.336 50.57,1.336 L54.198,1.336 L57.999,19.73 L53.642,19.73 L53.642,19.73 Z M51.219,7.884 L50.902,6.297 C50.664,6.988 50.251,8.103 50.279,8.054 C50.279,8.054 48.796,12.138 48.408,13.199 L52.306,13.199 C52.118,12.277 51.219,7.884 51.219,7.884 L51.219,7.884 Z M41.1,5.548 C40.233,5.175 39.121,4.817 37.585,4.843 C35.747,4.843 34.896,5.661 34.896,6.426 C34.886,7.288 35.891,7.856 37.532,8.707 C40.241,10.022 41.492,11.615 41.475,13.708 C41.438,17.529 38.234,19.997 33.298,19.997 C31.192,19.973 29.164,19.529 28.067,19.015 L28.726,14.894 L29.331,15.187 C30.873,15.874 31.872,16.153 33.751,16.153 C35.101,16.153 36.549,15.59 36.561,14.356 C36.569,13.55 35.955,12.975 34.127,12.073 C32.346,11.192 29.986,9.717 30.012,7.072 C30.04,3.495 33.309,0.998 37.949,0.998 C39.769,0.998 41.227,1.398 42.157,1.771 L41.521,5.76 L41.1,5.548 L41.1,5.548 Z M20.432,19.724 L23.368,1.318 L28.064,1.318 L25.126,19.724 L20.432,19.724 L20.432,19.724 Z M9.107,19.708 L4.932,3.722 C3.489,2.867 1.842,2.179 0,1.703 L0.06,1.32 L7.632,1.32 C8.652,1.361 9.476,1.708 9.76,2.874 L11.407,11.332 L11.896,13.882 L16.494,1.332 L21.468,1.332 L14.075,19.701 L9.107,19.708 L9.107,19.708 Z" id="Shape"></path>
                </g>
            </g>
        </g>
    </g>
</svg>