<svg width="22" height="16" viewBox="0 0 22 16" xmlns="http://www.w3.org/2000/svg"><title>A25739B4-FC1E-49A4-BA73-BBE7F244A5E7</title><path d="M18.924 3.151h-1.048v12.533h1.048c1.153 0 2.097-.752 2.097-1.67V4.821c0-.919-.944-1.67-2.097-1.67zM.057 4.822v9.191c0 .92.943 1.671 2.097 1.671h1.048V3.151H2.154C1 3.151.057 3.903.057 4.822zm14.15-3.42c-.713-.265-1.98-.758-3.688-.758-1.712 0-2.935.493-3.649.757v1.75H4.25v12.533h12.578V3.151h-2.62v-1.75zm-1.572 1.75H8.443V2.034c.56-.192 1.13-.389 2.076-.389.945 0 1.558.196 2.116.389V3.15z" fill="#D6D8D9" fill-rule="evenodd"/></svg>